<?xml version="1.0" encoding="UTF-8" standalone="no"?>
<!-- Created with Inkscape (http://www.inkscape.org/) -->

<svg
   width="189.48332mm"
   height="147.30585mm"
   viewBox="0 0 189.48332 147.30584"
   version="1.1"
   id="svg5"
   inkscape:version="1.1.2 (1:1.1+202202050950+0a00cf5339)"
   sodipodi:docname="dos-license-logo.svg"
   inkscape:export-filename="/home/michael/Documents/dos-license-logo-2000px.png"
   inkscape:export-xdpi="344.86072"
   inkscape:export-ydpi="344.86072"
   xmlns:inkscape="http://www.inkscape.org/namespaces/inkscape"
   xmlns:sodipodi="http://sodipodi.sourceforge.net/DTD/sodipodi-0.dtd"
   xmlns="http://www.w3.org/2000/svg"
   xmlns:svg="http://www.w3.org/2000/svg">
  <sodipodi:namedview
     id="namedview7"
     pagecolor="#ffffff"
     bordercolor="#666666"
     borderopacity="1.0"
     inkscape:pageshadow="2"
     inkscape:pageopacity="0.0"
     inkscape:pagecheckerboard="0"
     inkscape:document-units="mm"
     showgrid="false"
     fit-margin-top="0"
     fit-margin-left="0"
     fit-margin-right="0"
     fit-margin-bottom="0"
     inkscape:zoom="0.90583672"
     inkscape:cx="13.799396"
     inkscape:cy="350.50467"
     inkscape:window-width="2560"
     inkscape:window-height="1380"
     inkscape:window-x="0"
     inkscape:window-y="28"
     inkscape:window-maximized="1"
     inkscape:current-layer="layer5" />
  <defs
     id="defs2">
    <inkscape:perspective
       sodipodi:type="inkscape:persp3d"
       inkscape:vp_x="0 : -1.194157 : 1"
       inkscape:vp_y="0 : 999.9999 : 0"
       inkscape:vp_z="249.74563 : 35.347079 : 1"
       inkscape:persp3d-origin="105.00001 : -50.694152 : 1"
       id="perspective852" />
  </defs>
  <g
     inkscape:label="box"
     inkscape:groupmode="layer"
     id="layer1"
     transform="translate(-13.933564,-43.859741)">
    <rect
       style="fill:#353535;fill-opacity:1;stroke:none;stroke-width:6.13834;stroke-linecap:round;paint-order:stroke fill markers"
       id="rect962"
       width="189.483"
       height="147.30585"
       x="13.933564"
       y="43.859741" />
    <text
       xml:space="preserve"
       style="font-size:21.1667px;line-height:1.25;font-family:'Press Start 2P';-inkscape-font-specification:'Press Start 2P';letter-spacing:0px;word-spacing:-5.18054px;fill:#ffffff;fill-opacity:1;stroke-width:0.264583"
       x="10.695039"
       y="186.10393"
       id="text34406"><tspan
         sodipodi:role="line"
         id="tspan34404"
         style="font-size:21.1667px;fill:#ffffff;fill-opacity:1;stroke-width:0.264583"
         x="10.695039"
         y="186.10393" /></text>
  </g>
  <g
     inkscape:groupmode="layer"
     id="layer4"
     inkscape:label="line">
    <rect
       style="fill:#ffffff;fill-opacity:1;stroke:#ffffff;stroke-width:6.13833;stroke-linecap:round;paint-order:stroke fill markers"
       id="rect105915"
       width="167.79846"
       height="0.5241074"
       x="24.884418"
       y="155.25618"
       transform="translate(-13.933564,-43.859741)" />
  </g>
  <g
     inkscape:groupmode="layer"
     id="layer5"
     inkscape:label="free-software">
    <g
       aria-label="FREE SOFTWARE"
       transform="matrix(0.96966199,0,0,1.0312872,-13.933564,-43.859741)"
       id="text88439"
       style="font-size:19.8036px;line-height:1.25;font-family:'Ubuntu Condensed';-inkscape-font-specification:'Ubuntu Condensed, ';letter-spacing:0px;word-spacing:-2.90816px;fill:#ffffff;stroke-width:0.264582">
      <path
         d="m 22.468818,161.68613 h 10.046846 v 2.81389 h -6.324001 v 2.68818 h 5.946882 v 2.81389 h -5.946882 v 6.12094 h -3.722845 z"
         style="font-weight:bold;font-family:OpenSymbol;-inkscape-font-specification:'OpenSymbol Bold'"
         id="path14868" />
      <path
         d="m 41.286106,168.08749 q 1.170037,0 1.672863,-0.43514 0.512495,-0.43514 0.512495,-1.43112 0,-0.98631 -0.512495,-1.41178 -0.502826,-0.42547 -1.672863,-0.42547 H 39.71961 v 3.70351 z m -1.566496,2.57215 v 5.46339 h -3.722845 v -14.4369 h 5.6858 q 2.852569,0 4.177322,0.9573 1.334422,0.95731 1.334422,3.02663 0,1.43112 -0.69622,2.34974 -0.686551,0.91862 -2.078992,1.35376 0.763909,0.17406 1.363432,0.79292 0.609193,0.60919 1.228055,1.85659 l 2.020973,4.09996 h -3.964588 l -1.75989,-3.58747 q -0.531835,-1.08301 -1.08301,-1.47947 -0.541504,-0.39645 -1.450459,-0.39645 z"
         style="font-weight:bold;font-family:OpenSymbol;-inkscape-font-specification:'OpenSymbol Bold'"
         id="path14870" />
      <path
         d="m 51.245925,161.68613 h 10.046846 v 2.81389 H 54.96877 v 2.68818 h 5.946882 v 2.81389 H 54.96877 v 3.30705 h 6.536735 v 2.81389 h -10.25958 z"
         style="font-weight:bold;font-family:OpenSymbol;-inkscape-font-specification:'OpenSymbol Bold'"
         id="path14872" />
      <path
         d="m 64.773872,161.68613 h 10.046846 v 2.81389 h -6.324001 v 2.68818 h 5.946881 v 2.81389 h -5.946881 v 3.30705 h 6.536735 v 2.81389 h -10.25958 z"
         style="font-weight:bold;font-family:OpenSymbol;-inkscape-font-specification:'OpenSymbol Bold'"
         id="path14874" />
      <path
         d="m 92.335019,162.14061 v 3.05563 q -1.189376,-0.53183 -2.320734,-0.80259 -1.131358,-0.27075 -2.13701,-0.27075 -1.334422,0 -1.972624,0.36745 -0.638202,0.36745 -0.638202,1.14103 0,0.58018 0.425468,0.90895 0.435138,0.3191 1.566496,0.55118 l 1.585835,0.3191 q 2.407762,0.48348 3.423083,1.4698 1.015321,0.98631 1.015321,2.80422 0,2.38842 -1.421449,3.55846 -1.411781,1.16036 -4.322368,1.16036 -1.373102,0 -2.755872,-0.26108 -1.382771,-0.26108 -2.765542,-0.77358 v -3.14266 q 1.382771,0.7349 2.668844,1.11202 1.295744,0.36745 2.49479,0.36745 1.218385,0 1.866257,-0.40613 0.647872,-0.40613 0.647872,-1.16037 0,-0.67688 -0.444808,-1.04433 -0.435137,-0.36745 -1.75022,-0.65754 l -1.44079,-0.3191 q -2.166018,-0.46415 -3.17167,-1.47947 -0.995982,-1.01532 -0.995982,-2.73653 0,-2.15635 1.392441,-3.31672 1.392441,-1.16036 4.003267,-1.16036 1.189376,0 2.446441,0.18372 1.257064,0.17406 2.601156,0.53184 z"
         style="font-weight:bold;font-family:OpenSymbol;-inkscape-font-specification:'OpenSymbol Bold'"
         id="path14876" />
      <path
         d="m 103.14578,164.1229 q -1.70187,0 -2.63984,1.25707 -0.93796,1.25706 -0.93796,3.53912 0,2.27238 0.93796,3.52945 0.93797,1.25706 2.63984,1.25706 1.71154,0 2.6495,-1.25706 0.93797,-1.25707 0.93797,-3.52945 0,-2.28206 -0.93797,-3.53912 -0.93796,-1.25707 -2.6495,-1.25707 z m 0,-2.69785 q 3.4811,0 5.45372,1.99196 1.97263,1.99196 1.97263,5.50208 0,3.50044 -1.97263,5.4924 -1.97262,1.99196 -5.45372,1.99196 -3.471433,0 -5.453727,-1.99196 -1.972625,-1.99196 -1.972625,-5.4924 0,-3.51012 1.972625,-5.50208 1.982294,-1.99196 5.453727,-1.99196 z"
         style="font-weight:bold;font-family:OpenSymbol;-inkscape-font-specification:'OpenSymbol Bold'"
         id="path14878" />
      <path
         d="m 113.38602,161.68613 h 10.04684 v 2.81389 h -6.324 v 2.68818 h 5.94688 v 2.81389 h -5.94688 v 6.12094 h -3.72284 z"
         style="font-weight:bold;font-family:OpenSymbol;-inkscape-font-specification:'OpenSymbol Bold'"
         id="path14880" />
      <path
         d="m 125.19275,161.68613 h 13.30555 v 2.81389 h -4.78652 v 11.62301 h -3.72284 v -11.62301 h -4.79619 z"
         style="font-weight:bold;font-family:OpenSymbol;-inkscape-font-specification:'OpenSymbol Bold'"
         id="path14882" />
      <path
         d="m 139.19451,161.68613 h 3.56813 l 2.49479,10.49165 2.47545,-10.49165 h 3.58747 l 2.47545,10.49165 2.49479,-10.49165 h 3.53912 l -3.40374,14.4369 h -4.29336 l -2.6205,-10.97514 -2.59148,10.97514 h -4.29336 z"
         style="font-weight:bold;font-family:OpenSymbol;-inkscape-font-specification:'OpenSymbol Bold'"
         id="path14884" />
      <path
         d="m 170.13764,173.49287 h -5.82117 l -0.91863,2.63016 h -3.74218 l 5.34736,-14.4369 h 4.4384 l 5.34736,14.4369 h -3.74218 z m -4.89288,-2.67852 h 3.95492 l -1.97263,-5.74382 z"
         style="font-weight:bold;font-family:OpenSymbol;-inkscape-font-specification:'OpenSymbol Bold'"
         id="path14886" />
      <path
         d="m 181.99273,168.08749 q 1.17004,0 1.67286,-0.43514 0.5125,-0.43514 0.5125,-1.43112 0,-0.98631 -0.5125,-1.41178 -0.50282,-0.42547 -1.67286,-0.42547 h -1.56649 v 3.70351 z m -1.56649,2.57215 v 5.46339 h -3.72285 v -14.4369 h 5.6858 q 2.85257,0 4.17732,0.9573 1.33442,0.95731 1.33442,3.02663 0,1.43112 -0.69622,2.34974 -0.68655,0.91862 -2.07899,1.35376 0.76391,0.17406 1.36343,0.79292 0.6092,0.60919 1.22806,1.85659 l 2.02097,4.09996 h -3.96458 l -1.7599,-3.58747 q -0.53183,-1.08301 -1.083,-1.47947 -0.54151,-0.39645 -1.45046,-0.39645 z"
         style="font-weight:bold;font-family:OpenSymbol;-inkscape-font-specification:'OpenSymbol Bold'"
         id="path14888" />
      <path
         d="m 191.95254,161.68613 h 10.04684 v 2.81389 h -6.324 v 2.68818 h 5.94688 v 2.81389 h -5.94688 v 3.30705 h 6.53674 v 2.81389 h -10.25958 z"
         style="font-weight:bold;font-family:OpenSymbol;-inkscape-font-specification:'OpenSymbol Bold'"
         id="path14890" />
    </g>
  </g>
  <g
     inkscape:groupmode="layer"
     id="layer2"
     inkscape:label="dos"
     transform="translate(-13.933564,-43.859741)">
    <g
       aria-label="DOS"
       transform="scale(0.99214664,1.0079155)"
       id="text8328"
       style="font-size:78.0773px;line-height:1.25;font-family:'Press Start 2P';-inkscape-font-specification:'Press Start 2P';letter-spacing:0px;word-spacing:-7.05757px;fill:#ffffff;stroke-width:0.264583">
      <path
         d="m 37.384718,63.772655 v 34.730674 h 5.261068 q 8.997189,0 13.724526,-4.460471 4.76546,-4.460471 4.76546,-12.962052 0,-8.463457 -4.727336,-12.885804 -4.727337,-4.422347 -13.76265,-4.422347 z M 22.707101,52.678663 h 15.478215 q 12.962051,0 19.290583,1.868061 6.366655,1.829936 10.903373,6.252283 4.002986,3.850492 5.947294,8.882818 1.944308,5.032326 1.944308,11.398981 0,6.442903 -1.944308,11.513352 -1.944308,5.032326 -5.947294,8.882822 -4.574842,4.42234 -10.979621,6.2904 -6.404778,1.82994 -19.214335,1.82994 H 22.707101 Z"
         style="font-weight:bold;font-family:OpenSymbol;-inkscape-font-specification:'OpenSymbol Bold'"
         id="path8549" />
      <path
         d="m 113.51771,62.285831 q -6.70977,0 -10.40777,4.956079 -3.697994,4.956078 -3.697994,13.953267 0,8.959066 3.697994,13.915144 3.698,4.956079 10.40777,4.956079 6.74789,0 10.44589,-4.956079 3.69799,-4.956078 3.69799,-13.915144 0,-8.997189 -3.69799,-13.953267 -3.698,-4.956079 -10.44589,-4.956079 z m 0,-10.636507 q 13.72452,0 21.50176,7.853478 7.77723,7.853479 7.77723,21.692375 0,13.800773 -7.77723,21.654253 -7.77724,7.85348 -21.50176,7.85348 -13.686403,0 -21.501758,-7.85348 -7.777231,-7.85348 -7.777231,-21.654253 0,-13.838896 7.777231,-21.692375 7.815355,-7.853478 21.501758,-7.853478 z"
         style="font-weight:bold;font-family:OpenSymbol;-inkscape-font-specification:'OpenSymbol Bold'"
         id="path8551" />
      <path
         d="M 193.5012,54.470476 V 66.51756 q -4.68921,-2.096803 -9.14968,-3.164266 -4.46047,-1.067463 -8.42534,-1.067463 -5.26107,0 -7.77723,1.4487 -2.51616,1.4487 -2.51616,4.498594 0,2.287421 1.67744,3.583627 1.71557,1.258081 6.17604,2.173049 l 6.25228,1.258082 q 9.4928,1.906184 13.49578,5.7948 4.00299,3.888615 4.00299,11.055867 0,9.41655 -5.60418,14.02952 -5.56606,4.57484 -17.04129,4.57484 -5.41356,0 -10.86525,-1.02934 -5.45168,-1.02934 -10.90337,-3.0499 V 94.233477 q 5.45169,2.897399 10.52214,4.384223 5.10857,1.4487 9.83591,1.4487 4.80358,0 7.35787,-1.601195 2.55428,-1.601194 2.55428,-4.574841 0,-2.668658 -1.75368,-4.117358 -1.71557,-1.4487 -6.90039,-2.592411 l -5.68043,-1.258081 q -8.5397,-1.829937 -12.50457,-5.832923 -3.92674,-4.002987 -3.92674,-10.789002 0,-8.501582 5.48981,-13.076423 5.48981,-4.574842 15.78321,-4.574842 4.68921,0 9.64529,0.72435 4.95608,0.686226 10.25527,2.096802 z"
         style="font-weight:bold;font-family:OpenSymbol;-inkscape-font-specification:'OpenSymbol Bold'"
         id="path8553" />
    </g>
  </g>
  <g
     inkscape:groupmode="layer"
     id="layer3"
     inkscape:label="license"
     transform="translate(-13.933564,-43.859741)">
    <g
       aria-label="LICENSE"
       transform="scale(1.012295,0.98785434)"
       id="text61785"
       style="font-size:38.1625px;line-height:1.25;font-family:'Ubuntu Condensed';-inkscape-font-specification:'Ubuntu Condensed, ';letter-spacing:0px;word-spacing:-5.60418px;fill:#ffffff;stroke-width:0.264583">
      <path
         d="m 21.551664,119.27422 h 7.174102 v 22.39811 h 12.596606 v 5.4225 H 21.551664 Z"
         style="font-weight:bold;font-family:OpenSymbol;-inkscape-font-specification:'OpenSymbol Bold'"
         id="path14835" />
      <path
         d="m 45.869075,119.27422 h 7.174103 v 27.82061 h -7.174103 z"
         style="font-weight:bold;font-family:OpenSymbol;-inkscape-font-specification:'OpenSymbol Bold'"
         id="path14837" />
      <path
         d="m 82.130903,145.56684 q -1.975208,1.02487 -4.118122,1.54663 -2.142913,0.52175 -4.472167,0.52175 -6.950494,0 -11.012714,-3.87588 -4.062219,-3.89451 -4.062219,-10.54686 0,-6.67098 4.062219,-10.54686 4.06222,-3.89452 11.012714,-3.89452 2.329254,0 4.472167,0.52176 2.142914,0.52175 4.118122,1.54662 v 5.75792 q -1.993842,-1.36029 -3.931781,-1.99384 -1.93794,-0.63356 -4.080853,-0.63356 -3.838611,0 -6.037427,2.45969 -2.198816,2.45969 -2.198816,6.78279 0,4.30446 2.198816,6.76415 2.198816,2.4597 6.037427,2.4597 2.142913,0 4.080853,-0.63356 1.937939,-0.63356 3.931781,-1.99384 z"
         style="font-weight:bold;font-family:OpenSymbol;-inkscape-font-specification:'OpenSymbol Bold'"
         id="path14839" />
      <path
         d="m 88.075162,119.27422 h 19.360758 v 5.42251 H 95.249265 v 5.18026 h 11.459925 v 5.4225 H 95.249265 v 6.37284 h 12.596605 v 5.4225 H 88.075162 Z"
         style="font-weight:bold;font-family:OpenSymbol;-inkscape-font-specification:'OpenSymbol Bold'"
         id="path14841" />
      <path
         d="m 114.14417,119.27422 h 8.01263 l 10.11828,19.08125 v -19.08125 h 6.80143 v 27.82061 h -8.01264 l -10.11828,-19.08125 v 19.08125 h -6.80142 z"
         style="font-weight:bold;font-family:OpenSymbol;-inkscape-font-specification:'OpenSymbol Bold'"
         id="path14843" />
      <path
         d="m 165.44366,120.15002 v 5.88836 q -2.29199,-1.02488 -4.47217,-1.54663 -2.18018,-0.52175 -4.11812,-0.52175 -2.5715,0 -3.80134,0.70809 -1.22985,0.7081 -1.22985,2.19882 0,1.11804 0.8199,1.7516 0.83853,0.61492 3.01871,1.06214 l 3.05598,0.61492 q 4.63988,0.9317 6.59645,2.83237 1.95657,1.90067 1.95657,5.40387 0,4.60261 -2.7392,6.85733 -2.72057,2.23608 -8.32941,2.23608 -2.64603,0 -5.3107,-0.50312 -2.66467,-0.50312 -5.32933,-1.49072 v -6.05606 q 2.66466,1.41618 5.14299,2.14291 2.49696,0.7081 4.80758,0.7081 2.34789,0 3.59637,-0.78263 1.24848,-0.78263 1.24848,-2.23609 0,-1.30438 -0.85717,-2.01247 -0.83853,-0.7081 -3.37276,-1.26712 l -2.77647,-0.61492 q -4.17402,-0.89443 -6.11196,-2.85101 -1.91931,-1.95657 -1.91931,-5.27343 0,-4.15539 2.6833,-6.39147 2.6833,-2.23609 7.71449,-2.23609 2.29199,0 4.71441,0.35405 2.42243,0.33541 5.01256,1.02487 z"
         style="font-weight:bold;font-family:OpenSymbol;-inkscape-font-specification:'OpenSymbol Bold'"
         id="path14845" />
      <path
         d="m 173.5681,119.27422 h 19.36076 v 5.42251 H 180.7422 v 5.18026 h 11.45993 v 5.4225 H 180.7422 v 6.37284 h 12.59661 v 5.4225 H 173.5681 Z"
         style="font-weight:bold;font-family:OpenSymbol;-inkscape-font-specification:'OpenSymbol Bold'"
         id="path14847" />
    </g>
  </g>
</svg>
